<?xml version="1.0" encoding="UTF-8"?>
<svg id="Layer_2" data-name="Layer 2" xmlns="http://www.w3.org/2000/svg" viewBox="0 0 65.43 37.5">
  <defs>
    <style>
      .cls-1 {
        fill: #c39411;
      }
    </style>
  </defs>
  <g id="Text_Logo" data-name="Text&amp;amp;Logo">
    <g>
      <path class="cls-1" d="M55.6,22.03c.17.1.36.17.56.23.21.06.4.09.58.09.26,0,.46-.13.59-.38.08-.19.12-.53.12-1.05-.05-.23-.21-.4-.46-.51l-.2-.1-.41-.27c-.37-.21-.49-.21-.53-.21s-.07.01-.1.04l-.15.15c-.1.13-.2.29-.29.45-.3.59-.34.77-.34.87,0,.26.2.49.62.7Z"/>
      <path class="cls-1" d="M34.47,17.5c-2.38-2.37-7.11-2.28-9.65-2.24-.3,0-.57.01-.79.01-.31,0-.63,0-.93.02-.17,0-.34.02-.51.03,3.23-1.19,5.95-2.74,8.1-4.63,2.06-1.76,3.11-3.48,3.11-5.11,0-1.25-.64-2.22-1.89-2.86-1.28-.71-3.1-1.01-5.41-.88-.72.05-1.5.12-2.33.19-.9.09-1.77.19-2.67.31-1.12.15-2.75.42-4.99.82l-3.24.57c-.88-2.48-2.63-3.73-5.2-3.73-1.18,0-2.26.3-3.22.9-.97.6-1.62,1.39-1.93,2.35-.11.25-.17.54-.17.84v.07c0,.45,0,1.38.73,2.07.72.67,1.97.94,3.71.78.87-.02,1.97-.33,3.36-.72.59-.17,1.25-.36,1.96-.54.28,3.33-1.36,8.85-4.89,16.42-4.23,2.02-6.37,4.25-6.37,6.63,0,1.16.5,2.23,1.47,3.19l-.19.36c-.28.53-.47.89-.89,1.65-.23.42-.45.8-.67,1.18-.29.5-.6,1.02-.93,1.66-.03.06-.02.14.03.18l.48.42s.06.04.1.04c.03,0,.06-.01.09-.03l.7-.55s.03-.03.04-.05l2.14-4.08c.18.14.37.25.55.37.06.04.11.07.17.11-1.75,3.23-1.74,3.25-1.67,3.36.04.06.11.13.25.15.35.05.89-.29,1.17-.53.05-.04.1-.08,1.35-2.3,1.25.62,3.72,1.59,6.96,1.59,5.1,0,9.17-.63,12.43-1.91,3.09-1.2,10.35-4.81,11.08-12.4,0-1.53-.47-2.78-1.42-3.73ZM12.12,3.93c-1.02.16-1.97.3-2.82.4-.36.04-.7.1-1.02.16-.42.07-.78.14-1.12.15-1.35.2-2.25.06-2.61-.42-.38-.5-.06-1.24-.06-1.24.67-1.52,1.83-2.25,3.54-2.25,2.01,0,3.35,1.05,4.1,3.21ZM11.83,22.31c.74-.12,1.65-.18,2.02-.21.65-.04,1.31-.06,2.02-.06,3.61,0,6.23.52,7.77,1.54.21.12.42.17.71.17.16-.02.27-.08.33-.18.06-.11.06-.25-.03-.43-1.02-1.68-3.77-2.49-8.39-2.49-.67,0-1.33.02-1.98.06-.64.04-1.29.1-1.84.18.3-.77.7-1.9,1.14-3.19,1.16-3.37,2.76-7.98,4.27-10.36.94-1.52,2.57-.99,2.64-.97.04.01.09,0,.13-.02.04-.03.06-.07.06-.11.03-.45-.12-1.32-.88-1.45-.81-.14-2.13.06-3.24.8-.51.35-1.27,2.63-2.47,6.31-1.07,3.28-2.27,7-3.39,9.16-.54.11-1.11.31-1.58.48-.01,0-.03.01-.04.02,2.32-4.79,3.8-8.79,4.37-11.9.28-1.59.35-2.99.21-4.17,2.19-.55,3.72-.91,4.62-1.12,1.07-.24,1.66-.38,1.7-.41,1.2-.28,2.38-.49,3.52-.62,1.14-.13,2.12-.21,2.98-.23,3.13,0,4.72.77,4.72,2.27,0,1.17-.91,2.69-2.7,4.5-2.25,2.31-4.8,3.93-7.58,4.83-.31-.12-.79-.15-1.41-.07-.28.03-.55.12-.79.27-.23.14-.44.31-.63.51-.18.19-.32.4-.43.62-.11.23-.17.43-.17.62s.05.32.16.4c.11.09.28.11.49.05,1.37-.38,2.85-.58,4.4-.58,2.4,0,5.11.08,6.94,1.07,1,.74,1.55,1.81,1.62,3.2.12,2.36-1.24,5.11-2.57,6.31,0,0,0,0-.01.01-3.49,4.04-12.51,6.71-16.94,6.71-2.43,0-4.08-.3-5.45-1.01,2.09-3.73,5.3-9.71,5.69-10.53ZM10.13,22.61c-.59,1.17-3.05,5.74-5.08,9.47-.1-.07-.2-.13-.31-.19-.2-.11-.39-.22-.52-.39.49-.9.95-1.84,1.4-2.74.31-.63.61-1.22.88-1.75.36-.69.66-1.36.94-2.01.24-.54.46-1.05.69-1.5.17-.17.64-.5,1.98-.9ZM32.46,18.47l-.18-.35.29.26s2.29,2.14,1.18,5.27c-.69,1.78-2.04,3.33-3.99,4.59l-.4.22.31-.33c1.96-1.69,2.72-3.14,3.41-4.62.7-2.28-.48-4.77-.62-5.05ZM6.58,24.2c-.29.66-.91,2.07-1.31,2.86-.46.89-1.64,2.96-1.99,3.57-.24-.29-.73-1.04-.64-2.19.3-2.3,2.98-3.79,3.94-4.25Z"/>
      <path class="cls-1" d="M64.77,24.04s0,0-.01-.01c-.44-.43-1.05-.66-1.8-.65-1.75,0-3.51,1.42-4.28,2.76l-.1.17c-.27.46-.54.93-.54,1.42,0,.08.06.14.14.15l.97.07c.06,0,.13-.04.15-.1.04-.14.12-.29.19-.44l.07-.16c.17-.37.49-.73.79-1.08l.16-.19c.55-.63,1.45-1.31,2.29-1.31.29,0,.44.08.51.27.13.33.19.64.19.95,0,2.18-1.35,5.06-3.17,6.74-.01,0-.02.02-.03.02-.49.47-.77.54-.91.54,0,0-.02,0-.03,0-.17-.28.1-1.03.44-1.66.59-1.08,1.34-2.22,2.35-3.57l.04-.05c.3-.4.58-.8.59-1.07.01-.28-.2-.51-.61-.62-.17-.05-.3-.08-.45-.08-.45,0-.79.3-1,.52-.47.49-.91,1.13-1.35,1.99-.95,1.24-1.78,2.18-2.55,3.04-1.01,1.11-1.77,1.67-2.27,1.67-.38,0-.53-.36-.53-.67l2.26-8.03s0-.1-.03-.14c-.03-.04-.08-.06-.13-.05l-1.56.28c-.05,0-.1.05-.11.1-.09.27-.25.68-.44,1.15-.36.89-.84,2.12-1.22,3.34l-.1.39c-1.52,1.28-5.08,3.63-5.49,3.63h0c-.45-.1-.85-.86-.9-1.69-.07-1.24.39-2.79.56-3.21.61-1.48,1.95-3.19,3.84-3.56.17-.03.35.02.49.13.12.09.27.28.31.61.03.24-.06.47-.15.69-.08.2-.16.39-.14.59,0,.02,0,.03.01.04l.09.21s.04.06.08.08l.06.03c.09.04.21.1.37.04.19-.09.4-.33.5-.51.35-.58.49-1.19.43-1.82-.06-.58-.31-1.01-.74-1.29-.92-.58-2.41-.26-3.15.02-1.35.51-4.22,3.15-4.86,5.92-.14.62-.17,1.31-.06,1.95-.18.11-.44.29-.74.5-.51.35-1.47,1.01-1.66,1.02-.05,0-.14-.02-.25-.18-.1-.11-.15-.21-.15-.26l.16-.96,1.35-4.66.26-.94c.25-.75.37-1.27.37-1.57,0-.03,0-.06-.02-.08l-.15-.22s-.04-.05-.07-.06c-.21-.08-.43-.16-.68-.24-.25-.09-.52-.16-.78-.21-.28-.06-.67-.09-1.17-.09-.77,0-1.55.15-2.31.46-.78.33-1.48.79-2.09,1.36-.94.88-1.67,1.83-2.17,2.82-.54.99-.81,1.94-.81,2.84,0,1.05.24,1.87.71,2.41.45.61,1.08.92,1.87.92.68,0,1.41-.4,2.18-1.19.36-.39.76-.9,1.18-1.5.2-.29.41-.62.63-.98-.05.21-.12.49-.19.82-.15.52-.23.93-.23,1.23,0,.53.15.93.45,1.21.29.27.68.41,1.16.41.57,0,2.3-.86,3.46-1.82.2.45.47.83.79,1.1.33.47.84.72,1.48.72,1.1,0,2.63-1.05,3.97-2.04.28-.21.71-.49,1.12-.75.25-.16.51-.33.74-.48l-.07.28c-.18,1.2-.07,2.02.34,2.5.28.33.69.49,1.22.49,1.62,0,3.31-1.79,4.35-3.06-.2.59-.3,1.05-.31,1.36,0,.53.17.98.48,1.29.27.27.63.41,1.05.41,0,0,.02,0,.03,0,2.69,0,5.2-5.08,5.79-7.19.27-.95.51-2.32-.42-3.23ZM41.39,24.95c-1,2.54-2.02,4.57-3.02,6.04h0c-.99,1.46-1.81,2.19-2.44,2.19-.2,0-.37-.11-.52-.34-.17-.22-.25-.49-.25-.82,0-.63.19-1.4.57-2.29.35-.9.9-1.86,1.62-2.87.53-.75,1.06-1.32,1.58-1.7.43-.36.87-.55,1.32-.55.26,0,.48.03.63.08.19.08.33.14.41.17.05.03.09.06.11.08Z"/>
    </g>
  </g>
</svg>