<svg width="284" height="57" viewBox="0 0 284 57" fill="none" xmlns="http://www.w3.org/2000/svg">
    <g clip-path="url(#clip0_577_2374)">
        <g clip-path="url(#clip1_577_2374)">
            <path d="M13.1845 24.4079C9.04374 27.7789 6.9602 27.199 5.02491 22.3001C3.45006 18.3172 1.69687 14.4019 0.165183 10.4021C0.165183 23.2142 0 36.0901 0 49.9456C15.1198 32.7904 29.5695 16.3952 44.0193 0C33.4081 7.82128 23.3264 16.1531 13.1845 24.4079Z" fill="#B08951"/>
            <path d="M25.9197 25.5453C23.5152 28.3026 21.3377 30.8008 18.9727 33.513C28.4537 41.4993 37.8166 49.0392 46.9992 56.7741C39.932 46.6086 33.229 36.0544 25.9216 25.5435L25.9197 25.5453Z" fill="#B08951"/>
            <path d="M32.9618 4.88381C28.2002 3.24242 22.5445 2.67758 16.4308 4.75178C10.9836 6.59979 7.43834 9.28589 4.48047 13.3629C6.98903 9.90521 11.8998 7.80396 17.5047 6.93562C21.9556 6.24608 24.956 6.54419 28.9943 7.93625L32.9618 4.88381Z" fill="#B08951"/>
            <path d="M40.8948 42.7333C44.7235 38.0637 47.4351 32.5593 46.9334 25.4138C46.4553 18.6089 43.7327 13.7741 39.2522 9.72583C43.0519 13.1591 44.6746 18.9975 44.252 25.4138C43.8709 31.1955 41.7004 35.1101 38.4531 39.0703L40.8948 42.7333Z" fill="#B08951"/>
            <path d="M8.45703 45.2236C11.5087 47.7664 14.5534 49.404 19.0554 50.2454C23.8263 51.137 27.6569 50.3707 31.4345 49.1432C28.2307 50.1844 23.9203 49.8014 19.5319 48.2276C15.6715 46.8432 13.3301 44.6371 10.742 42.4807L8.45703 45.2236Z" fill="#B08951"/>
            <path d="M62.5535 24.3013V15.1374H58.9395V13.0078H68.781V15.1374H65.1671V24.3013H62.5535ZM77.6621 24.4949C76.7693 24.4949 75.9411 24.3497 75.1775 24.0593C74.4246 23.7689 73.7685 23.3601 73.2092 22.8331C72.6606 22.3061 72.2304 21.6876 71.9185 20.9778C71.6173 20.2679 71.4668 19.4935 71.4668 18.6545C71.4668 17.8156 71.6173 17.0412 71.9185 16.3313C72.2304 15.6214 72.666 15.0029 73.2253 14.4759C73.7846 13.9489 74.4407 13.5402 75.1936 13.2498C75.9465 12.9594 76.764 12.8142 77.6459 12.8142C78.5387 12.8142 79.3561 12.9594 80.0982 13.2498C80.8511 13.5402 81.5019 13.9489 82.0504 14.4759C82.6097 15.0029 83.0453 15.6214 83.3572 16.3313C83.6691 17.0304 83.8251 17.8048 83.8251 18.6545C83.8251 19.4935 83.6691 20.2733 83.3572 20.9939C83.0453 21.7038 82.6097 22.3222 82.0504 22.8492C81.5019 23.3655 80.8511 23.7689 80.0982 24.0593C79.3561 24.3497 78.544 24.4949 77.6621 24.4949ZM77.6459 22.2684C78.1514 22.2684 78.6139 22.1824 79.0334 22.0103C79.4636 21.8382 79.8401 21.5908 80.1628 21.2682C80.4854 20.9455 80.7328 20.5637 80.9049 20.1227C81.0878 19.6817 81.1792 19.1923 81.1792 18.6545C81.1792 18.1167 81.0878 17.6273 80.9049 17.1864C80.7328 16.7454 80.4854 16.3635 80.1628 16.0409C79.8509 15.7182 79.4798 15.4708 79.0495 15.2987C78.6193 15.1266 78.1514 15.0406 77.6459 15.0406C77.1404 15.0406 76.6725 15.1266 76.2423 15.2987C75.8228 15.4708 75.4518 15.7182 75.1291 16.0409C74.8064 16.3635 74.5537 16.7454 74.3708 17.1864C74.1987 17.6273 74.1127 18.1167 74.1127 18.6545C74.1127 19.1815 74.1987 19.6709 74.3708 20.1227C74.5537 20.5637 74.801 20.9455 75.113 21.2682C75.4356 21.5908 75.8121 21.8382 76.2423 22.0103C76.6725 22.1824 77.1404 22.2684 77.6459 22.2684ZM87.9363 24.3013V13.0078H93.4539C94.8737 13.0078 95.9385 13.2767 96.6484 13.8144C97.369 14.3522 97.7293 15.0621 97.7293 15.9441C97.7293 16.5356 97.5841 17.0519 97.2937 17.4929C97.0033 17.9231 96.6054 18.2566 96.0999 18.4932C95.5943 18.7298 95.0135 18.8481 94.3574 18.8481L94.664 18.1866C95.3738 18.1866 96.0031 18.305 96.5516 18.5416C97.1001 18.7675 97.525 19.1063 97.8261 19.558C98.1381 20.0097 98.294 20.5637 98.294 21.2198C98.294 22.1878 97.9122 22.946 97.1485 23.4946C96.3849 24.0324 95.2609 24.3013 93.7766 24.3013H87.9363ZM90.5338 22.333H93.583C94.2606 22.333 94.7715 22.2254 95.1157 22.0103C95.4706 21.7844 95.6481 21.4295 95.6481 20.9455C95.6481 20.4722 95.4706 20.1227 95.1157 19.8968C94.7715 19.6602 94.2606 19.5419 93.583 19.5419H90.3402V17.6381H93.1313C93.7659 17.6381 94.2499 17.5305 94.5833 17.3154C94.9275 17.0896 95.0996 16.7508 95.0996 16.299C95.0996 15.858 94.9275 15.53 94.5833 15.3149C94.2499 15.089 93.7659 14.9761 93.1313 14.9761H90.5338V22.333ZM100.935 24.3013L105.969 13.0078H108.55L113.6 24.3013H110.858L106.727 14.3307H107.76L103.614 24.3013H100.935ZM103.452 21.8812L104.146 19.8968H109.954L110.664 21.8812H103.452ZM122.166 24.4949C121.295 24.4949 120.483 24.355 119.73 24.0754C118.988 23.785 118.342 23.3763 117.794 22.8492C117.245 22.3222 116.815 21.7038 116.503 20.9939C116.202 20.284 116.051 19.5042 116.051 18.6545C116.051 17.8048 116.202 17.025 116.503 16.3151C116.815 15.6053 117.245 14.9868 117.794 14.4598C118.353 13.9328 119.004 13.5294 119.746 13.2498C120.488 12.9594 121.3 12.8142 122.182 12.8142C123.161 12.8142 124.043 12.9862 124.828 13.3304C125.624 13.6639 126.291 14.1586 126.829 14.8147L125.151 16.3635C124.764 15.9226 124.333 15.5945 123.86 15.3794C123.387 15.1535 122.871 15.0406 122.311 15.0406C121.784 15.0406 121.3 15.1266 120.859 15.2987C120.418 15.4708 120.036 15.7182 119.714 16.0409C119.391 16.3635 119.138 16.7454 118.955 17.1864C118.783 17.6273 118.697 18.1167 118.697 18.6545C118.697 19.1923 118.783 19.6817 118.955 20.1227C119.138 20.5637 119.391 20.9455 119.714 21.2682C120.036 21.5908 120.418 21.8382 120.859 22.0103C121.3 22.1824 121.784 22.2684 122.311 22.2684C122.871 22.2684 123.387 22.1609 123.86 21.9458C124.333 21.7199 124.764 21.3811 125.151 20.9294L126.829 22.4782C126.291 23.1343 125.624 23.6344 124.828 23.9786C124.043 24.3228 123.156 24.4949 122.166 24.4949ZM135.909 24.4949C135.038 24.4949 134.226 24.355 133.473 24.0754C132.731 23.785 132.085 23.3763 131.537 22.8492C130.988 22.3222 130.558 21.7038 130.246 20.9939C129.945 20.284 129.794 19.5042 129.794 18.6545C129.794 17.8048 129.945 17.025 130.246 16.3151C130.558 15.6053 130.988 14.9868 131.537 14.4598C132.096 13.9328 132.747 13.5294 133.489 13.2498C134.231 12.9594 135.043 12.8142 135.925 12.8142C136.904 12.8142 137.786 12.9862 138.571 13.3304C139.367 13.6639 140.034 14.1586 140.572 14.8147L138.894 16.3635C138.506 15.9226 138.076 15.5945 137.603 15.3794C137.13 15.1535 136.613 15.0406 136.054 15.0406C135.527 15.0406 135.043 15.1266 134.602 15.2987C134.161 15.4708 133.779 15.7182 133.457 16.0409C133.134 16.3635 132.881 16.7454 132.698 17.1864C132.526 17.6273 132.44 18.1167 132.44 18.6545C132.44 19.1923 132.526 19.6817 132.698 20.1227C132.881 20.5637 133.134 20.9455 133.457 21.2682C133.779 21.5908 134.161 21.8382 134.602 22.0103C135.043 22.1824 135.527 22.2684 136.054 22.2684C136.613 22.2684 137.13 22.1609 137.603 21.9458C138.076 21.7199 138.506 21.3811 138.894 20.9294L140.572 22.4782C140.034 23.1343 139.367 23.6344 138.571 23.9786C137.786 24.3228 136.899 24.4949 135.909 24.4949ZM149.733 24.4949C148.84 24.4949 148.012 24.3497 147.248 24.0593C146.495 23.7689 145.839 23.3601 145.28 22.8331C144.731 22.3061 144.301 21.6876 143.989 20.9778C143.688 20.2679 143.537 19.4935 143.537 18.6545C143.537 17.8156 143.688 17.0412 143.989 16.3313C144.301 15.6214 144.737 15.0029 145.296 14.4759C145.855 13.9489 146.511 13.5402 147.264 13.2498C148.017 12.9594 148.834 12.8142 149.716 12.8142C150.609 12.8142 151.427 12.9594 152.169 13.2498C152.922 13.5402 153.572 13.9489 154.121 14.4759C154.68 15.0029 155.116 15.6214 155.428 16.3313C155.74 17.0304 155.896 17.8048 155.896 18.6545C155.896 19.4935 155.74 20.2733 155.428 20.9939C155.116 21.7038 154.68 22.3222 154.121 22.8492C153.572 23.3655 152.922 23.7689 152.169 24.0593C151.427 24.3497 150.615 24.4949 149.733 24.4949ZM149.716 22.2684C150.222 22.2684 150.684 22.1824 151.104 22.0103C151.534 21.8382 151.911 21.5908 152.233 21.2682C152.556 20.9455 152.803 20.5637 152.975 20.1227C153.158 19.6817 153.25 19.1923 153.25 18.6545C153.25 18.1167 153.158 17.6273 152.975 17.1864C152.803 16.7454 152.556 16.3635 152.233 16.0409C151.921 15.7182 151.55 15.4708 151.12 15.2987C150.69 15.1266 150.222 15.0406 149.716 15.0406C149.211 15.0406 148.743 15.1266 148.313 15.2987C147.893 15.4708 147.522 15.7182 147.2 16.0409C146.877 16.3635 146.624 16.7454 146.441 17.1864C146.269 17.6273 146.183 18.1167 146.183 18.6545C146.183 19.1815 146.269 19.6709 146.441 20.1227C146.624 20.5637 146.872 20.9455 147.183 21.2682C147.506 21.5908 147.883 21.8382 148.313 22.0103C148.743 22.1824 149.211 22.2684 149.716 22.2684ZM165.515 20.5905C165.515 19.4935 165.924 18.547 166.742 17.751C167.559 16.9551 168.543 16.5571 169.694 16.5571C169.737 16.5571 169.775 16.5625 169.807 16.5733C169.85 16.5733 169.893 16.5787 169.936 16.5894C169.979 16.6002 170.011 16.6055 170.033 16.6055L170.194 16.6378V16.5571L169.468 16.1538L168.742 15.0245V13.0078H176.083V15.1051H171.565V15.1858L177.616 24.3013H174.873L173.744 22.7686V21.8006H173.663C173.641 22.4674 173.26 23.1074 172.517 23.7205C171.786 24.3228 170.904 24.6239 169.871 24.6239C168.613 24.6239 167.57 24.2367 166.742 23.4623C165.924 22.6772 165.515 21.7199 165.515 20.5905ZM168.549 19.0417C168.194 19.4074 168.016 19.8968 168.016 20.5099C168.016 21.123 168.194 21.6123 168.549 21.978C168.903 22.3437 169.371 22.5266 169.952 22.5266C170.533 22.5266 171.001 22.3437 171.356 21.978C171.711 21.6123 171.888 21.123 171.888 20.5099C171.888 19.8968 171.711 19.4074 171.356 19.0417C171.001 18.676 170.533 18.4932 169.952 18.4932C169.371 18.4932 168.903 18.676 168.549 19.0417ZM65.6188 43.4949C64.7476 43.4949 63.9356 43.355 63.1827 43.0754C62.4405 42.785 61.7952 42.3763 61.2466 41.8492C60.6981 41.3222 60.2679 40.7038 59.956 39.9939C59.6548 39.284 59.5042 38.5042 59.5042 37.6545C59.5042 36.8048 59.6548 36.025 59.956 35.3151C60.2679 34.6053 60.6981 33.9868 61.2466 33.4598C61.8059 32.9328 62.4567 32.5294 63.1988 32.2498C63.9409 31.9594 64.753 31.8142 65.635 31.8142C66.6137 31.8142 67.4957 31.9862 68.2809 32.3304C69.0768 32.6639 69.7437 33.1586 70.2814 33.8147L68.6036 35.3635C68.2163 34.9226 67.7861 34.5945 67.3129 34.3794C66.8396 34.1535 66.3233 34.0406 65.764 34.0406C65.237 34.0406 64.753 34.1266 64.312 34.2987C63.871 34.4708 63.4892 34.7182 63.1665 35.0409C62.8439 35.3635 62.5911 35.7454 62.4083 36.1864C62.2362 36.6273 62.1501 37.1167 62.1501 37.6545C62.1501 38.1923 62.2362 38.6817 62.4083 39.1227C62.5911 39.5637 62.8439 39.9455 63.1665 40.2682C63.4892 40.5908 63.871 40.8382 64.312 41.0103C64.753 41.1824 65.237 41.2684 65.764 41.2684C66.3233 41.2684 66.8396 41.1609 67.3129 40.9458C67.7861 40.7199 68.2163 40.3811 68.6036 39.9294L70.2814 41.4782C69.7437 42.1343 69.0768 42.6344 68.2809 42.9786C67.4957 43.3228 66.6084 43.4949 65.6188 43.4949ZM74.1933 43.3013V32.0078H76.807V43.3013H74.1933ZM87.0872 43.4949C86.1945 43.4949 85.3717 43.355 84.6188 43.0754C83.8766 42.785 83.2259 42.3763 82.6666 41.8492C82.1181 41.3222 81.6879 40.7038 81.3759 39.9939C81.0748 39.284 80.9242 38.5042 80.9242 37.6545C80.9242 36.8048 81.0748 36.025 81.3759 35.3151C81.6879 34.6053 82.1235 33.9868 82.6828 33.4598C83.2421 32.9328 83.8982 32.5294 84.6511 32.2498C85.404 31.9594 86.2322 31.8142 87.1356 31.8142C88.1359 31.8142 89.034 31.9809 89.8299 32.3143C90.6366 32.6477 91.3142 33.1317 91.8628 33.7663L90.1849 35.3151C89.7762 34.8849 89.3298 34.5676 88.8458 34.3633C88.3618 34.1481 87.8348 34.0406 87.2647 34.0406C86.7162 34.0406 86.216 34.1266 85.7643 34.2987C85.3125 34.4708 84.92 34.7182 84.5865 35.0409C84.2639 35.3635 84.0111 35.7454 83.8282 36.1864C83.6562 36.6273 83.5701 37.1167 83.5701 37.6545C83.5701 38.1815 83.6562 38.6656 83.8282 39.1065C84.0111 39.5475 84.2639 39.9347 84.5865 40.2682C84.92 40.5908 85.3072 40.8382 85.7481 41.0103C86.1999 41.1824 86.6946 41.2684 87.2324 41.2684C87.7487 41.2684 88.2488 41.1878 88.7329 41.0264C89.2276 40.8543 89.7062 40.5693 90.1687 40.1714L91.653 42.059C91.04 42.5215 90.3247 42.8764 89.5073 43.1238C88.7006 43.3712 87.8939 43.4949 87.0872 43.4949ZM89.2653 41.7202V37.477H91.653V42.059L89.2653 41.7202ZM94.7435 43.3013L99.7772 32.0078H102.359L107.408 43.3013H104.666L100.535 33.3307H101.568L97.4217 43.3013H94.7435ZM97.2603 40.8812L97.9541 38.8968H103.762L104.472 40.8812H97.2603ZM110.727 43.3013V32.0078H115.615C116.626 32.0078 117.498 32.1745 118.229 32.5079C118.96 32.8306 119.525 33.2984 119.923 33.9115C120.321 34.5246 120.52 35.256 120.52 36.1057C120.52 36.9446 120.321 37.6706 119.923 38.2837C119.525 38.886 118.96 39.3485 118.229 39.6712C117.498 39.9939 116.626 40.1552 115.615 40.1552H112.179L113.341 39.0097V43.3013H110.727ZM117.906 43.3013L115.083 39.2033H117.874L120.73 43.3013H117.906ZM113.341 39.3001L112.179 38.074H115.47C116.277 38.074 116.879 37.9019 117.277 37.5577C117.675 37.2028 117.874 36.7188 117.874 36.1057C117.874 35.4819 117.675 34.9979 117.277 34.6537C116.879 34.3095 116.277 34.1374 115.47 34.1374H112.179L113.341 32.8951V39.3001ZM127.142 36.5574H132.579V38.5903H127.142V36.5574ZM127.335 41.2039H133.482V43.3013H124.738V32.0078H133.272V34.1051H127.335V41.2039ZM140.048 43.3013V34.1374H136.434V32.0078H146.276V34.1374H142.662V43.3013H140.048ZM152.326 43.3013V34.1374H148.712V32.0078H158.553V34.1374H154.939V43.3013H152.326ZM164.51 36.5574H169.947V38.5903H164.51V36.5574ZM164.704 41.2039H170.851V43.3013H162.106V32.0078H170.641V34.1051H164.704V41.2039ZM178.788 43.4949C177.885 43.4949 177.019 43.3766 176.191 43.1399C175.362 42.8926 174.695 42.5753 174.19 42.1881L175.077 40.2198C175.561 40.5639 176.131 40.849 176.787 41.0748C177.454 41.2899 178.127 41.3975 178.804 41.3975C179.32 41.3975 179.735 41.3491 180.046 41.2523C180.369 41.1447 180.606 40.9995 180.756 40.8167C180.907 40.6339 180.982 40.4241 180.982 40.1875C180.982 39.8863 180.864 39.6497 180.627 39.4776C180.391 39.2948 180.079 39.1496 179.692 39.042C179.304 38.9237 178.874 38.8161 178.401 38.7193C177.938 38.6118 177.47 38.4827 176.997 38.3321C176.535 38.1815 176.11 37.9879 175.723 37.7513C175.335 37.5147 175.018 37.2028 174.771 36.8156C174.534 36.4284 174.416 35.9336 174.416 35.3313C174.416 34.6859 174.588 34.0997 174.932 33.5727C175.287 33.0349 175.814 32.6101 176.513 32.2982C177.223 31.9755 178.11 31.8142 179.175 31.8142C179.885 31.8142 180.584 31.9002 181.273 32.0723C181.961 32.2336 182.569 32.481 183.096 32.8144L182.289 34.7989C181.762 34.4977 181.235 34.2772 180.708 34.1374C180.181 33.9868 179.665 33.9115 179.159 33.9115C178.654 33.9115 178.24 33.9707 177.917 34.089C177.594 34.2073 177.363 34.3633 177.223 34.5569C177.083 34.7397 177.013 34.9548 177.013 35.2022C177.013 35.4926 177.132 35.7292 177.368 35.9121C177.605 36.0842 177.917 36.224 178.304 36.3316C178.691 36.4391 179.116 36.5467 179.579 36.6542C180.052 36.7618 180.52 36.8855 180.982 37.0253C181.455 37.1651 181.886 37.3534 182.273 37.59C182.66 37.8266 182.972 38.1385 183.209 38.5257C183.456 38.9129 183.58 39.4023 183.58 39.9939C183.58 40.6285 183.402 41.2093 183.047 41.7363C182.692 42.2633 182.16 42.6882 181.45 43.0109C180.751 43.3335 179.864 43.4949 178.788 43.4949ZM196.568 43.3013V34.1374H192.954V32.0078H202.795V34.1374H199.182V43.3013H196.568ZM206.349 43.3013V32.0078H211.237C212.248 32.0078 213.119 32.1745 213.851 32.5079C214.582 32.8306 215.147 33.2984 215.545 33.9115C215.943 34.5246 216.142 35.256 216.142 36.1057C216.142 36.9446 215.943 37.6706 215.545 38.2837C215.147 38.886 214.582 39.3485 213.851 39.6712C213.119 39.9939 212.248 40.1552 211.237 40.1552H207.801L208.962 39.0097V43.3013H206.349ZM213.528 43.3013L210.705 39.2033H213.496L216.351 43.3013H213.528ZM208.962 39.3001L207.801 38.074H211.092C211.899 38.074 212.501 37.9019 212.899 37.5577C213.297 37.2028 213.496 36.7188 213.496 36.1057C213.496 35.4819 213.297 34.9979 212.899 34.6537C212.501 34.3095 211.899 34.1374 211.092 34.1374H207.801L208.962 32.8951V39.3001ZM218.875 43.3013L223.909 32.0078H226.49L231.54 43.3013H228.797L224.667 33.3307H225.7L221.553 43.3013H218.875ZM221.392 40.8812L222.086 38.8968H227.894L228.604 40.8812H221.392ZM234.859 43.3013V32.0078H239.989C241.215 32.0078 242.296 32.2444 243.232 32.7176C244.168 33.1801 244.899 33.8309 245.426 34.6698C245.953 35.5087 246.217 36.5037 246.217 37.6545C246.217 38.7946 245.953 39.7895 245.426 40.6392C244.899 41.4782 244.168 42.1343 243.232 42.6075C242.296 43.07 241.215 43.3013 239.989 43.3013H234.859ZM237.472 41.1555H239.86C240.613 41.1555 241.264 41.0157 241.812 40.736C242.371 40.4456 242.802 40.0369 243.103 39.5099C243.415 38.9828 243.571 38.3644 243.571 37.6545C243.571 36.9339 243.415 36.3154 243.103 35.7992C242.802 35.2721 242.371 34.8688 241.812 34.5891C241.264 34.2987 240.613 34.1535 239.86 34.1535H237.472V41.1555ZM250.335 43.3013V32.0078H252.948V43.3013H250.335ZM257.775 43.3013V32.0078H259.937L266.6 40.1391H265.552V32.0078H268.133V43.3013H265.987L259.308 35.1699H260.357V43.3013H257.775ZM278.405 43.4949C277.512 43.4949 276.69 43.355 275.937 43.0754C275.195 42.785 274.544 42.3763 273.985 41.8492C273.436 41.3222 273.006 40.7038 272.694 39.9939C272.393 39.284 272.242 38.5042 272.242 37.6545C272.242 36.8048 272.393 36.025 272.694 35.3151C273.006 34.6053 273.441 33.9868 274.001 33.4598C274.56 32.9328 275.216 32.5294 275.969 32.2498C276.722 31.9594 277.55 31.8142 278.454 31.8142C279.454 31.8142 280.352 31.9809 281.148 32.3143C281.955 32.6477 282.632 33.1317 283.181 33.7663L281.503 35.3151C281.094 34.8849 280.648 34.5676 280.164 34.3633C279.68 34.1481 279.153 34.0406 278.583 34.0406C278.034 34.0406 277.534 34.1266 277.082 34.2987C276.63 34.4708 276.238 34.7182 275.904 35.0409C275.582 35.3635 275.329 35.7454 275.146 36.1864C274.974 36.6273 274.888 37.1167 274.888 37.6545C274.888 38.1815 274.974 38.6656 275.146 39.1065C275.329 39.5475 275.582 39.9347 275.904 40.2682C276.238 40.5908 276.625 40.8382 277.066 41.0103C277.518 41.1824 278.013 41.2684 278.55 41.2684C279.067 41.2684 279.567 41.1878 280.051 41.0264C280.546 40.8543 281.024 40.5693 281.487 40.1714L282.971 42.059C282.358 42.5215 281.643 42.8764 280.825 43.1238C280.019 43.3712 279.212 43.4949 278.405 43.4949ZM280.583 41.7202V37.477H282.971V42.059L280.583 41.7202Z" fill="white"/>
        </g>
    </g>
    <defs>
        <clipPath id="clip0_577_2374">
            <rect width="284" height="56.7741" fill="white"/>
        </clipPath>
        <clipPath id="clip1_577_2374">
            <rect width="284" height="56.7741" fill="white"/>
        </clipPath>
    </defs>
</svg>
