<?xml version="1.0" encoding="UTF-8"?>
<svg id="Layer_2" data-name="Layer 2" xmlns="http://www.w3.org/2000/svg" viewBox="0 0 78.88 25.97">
  <defs>
    <style>
      .cls-1 {
        fill: #d9c79e;
      }
    </style>
  </defs>
  <g id="Layer_1-2" data-name="Layer 1">
    <g>
      <path class="cls-1" d="M78.76,17.06c-.22-.22-1.71.3-1.68-2.78,0,0,.07-2.26.07-4.42s-.53-4.35-3.22-4.35-3.6,2.37-3.6,2.37c0,0,.24-2.22.18-2.3-.07-.09-3.2.52-3.64.61-.44.1-.42.76.07.75,1.01.04,1.52.58,1.52,2.29v5.05c.21,3.25-1.32,2.57-1.54,2.79-.27.27-.07.96.52.75.64-.16,2.08-.19,2.08-.19,0,0,1.44.03,2.08.19.59.21.79-.48.52-.75-.22-.22-1.78.29-1.74-2.79,0,0,.07-2.37.08-4.35.02-1.98,1.66-2.89,2.62-2.89s2.02.5,2.02,2.62v4.61c.1,3.39-1.32,2.57-1.54,2.79-.27.27-.07.96.52.75.64-.16,2.08-.19,2.08-.19,0,0,1.44.03,2.08.19.59.21.79-.48.52-.75Z"/>
      <path class="cls-1" d="M18.37.89c.74,0,.72-.94.14-.89l-4.42.14-4.45,12.88L4.84.14.42,0C-.15-.04-.17.89.56.89s1.69.1,1.69,1.69l.16,11.69c.05,3.08-1.97,2.57-2.26,2.79-.36.27-.09.96.69.75.84-.16,2.03-.19,2.03-.19,0,0,1.18.03,2.03.19.79.21,1.05-.48.69-.75-.29-.22-2.36.29-2.31-2.79V4.18l5.33,13.67h.5l4.75-13.5h.29v9.92c.06,3.08-2,2.57-2.3,2.79-.36.27-.09.96.69.75.84-.16,2.76-.19,2.76-.19,0,0,1.91.03,2.76.19.79.21,1.05-.48.69-.75-.29-.22-2.36.29-2.31-2.79l.22-11.69c0-1.59.96-1.69,1.69-1.69Z"/>
      <path class="cls-1" d="M25.59,5.39c-2.82,0-5.11,2.83-5.11,6.33s2.29,6.33,5.11,6.33,5.11-2.83,5.11-6.33-2.29-6.33-5.11-6.33ZM25.58,17.02c-1.73,0-2.75-2.43-2.75-5.32s.91-5.24,2.75-5.24c2.07,0,2.75,2.35,2.75,5.24s-.75,5.32-2.75,5.32Z"/>
      <path class="cls-1" d="M39.36,5.39c-2.2-.04-3.17,2.28-3.17,2.28v-2.11l-3.65.58c-.37.09-.28.65.3.73.58.09,1.55.52,1.55,1.62s.1,5.77.1,5.77c.05,3.08-1.71,2.57-2,2.79-.36.27-.09.96.69.75.84-.16,2.45-.19,2.45-.19,0,0,1.52.03,2.37.19.79.21,1.05-.48.69-.75-.29-.22-2.46.32-2.24-2.79v-4.9c0-.88,1.09-2.55,1.8-2.55s.82.34.75.74c-.11.6.38.98,1.11.92.89-.07,1.65-3.04-.75-3.09Z"/>
      <path class="cls-1" d="M52.47,5.63c-.89,0-1.58.73-1.97,1.25-.66-.84-1.67-1.45-3.13-1.45-3.04,0-4.69,2.13-4.69,4.66s.76,3.08,2.37,4.07c-.57.11-2.65.58-2.65,2.31,0,1.1.51,1.86,1.65,2.28-.8.44-2.14,1.43-2.14,3.1,0,2.39,2.19,4.1,5,4.1s6.3-1.03,6.3-4.72-3.63-4.08-5.72-4.27-3.01-.44-2.98-1.03.46-1.22,2.7-1.22c2.92,0,4.31-2.75,4.31-4.73,0-.8-.18-1.71-.6-2.5.3-.34.71-.71,1.07-.71.55,0,.64.43.76.86.14.48,1.38.84,1.67-.26s-.54-1.76-1.94-1.76ZM44.79,18.98c.52.11,1.12.17,1.82.19,2.97.07,4.69,1.04,4.69,2.5s-1.2,3.12-3.55,3.12-3.71-1.84-3.71-3.47c0-1.03.44-1.87.76-2.34ZM48.96,12.15c-.17.72-.71,1.59-1.93,1.59s-2.03-1.58-2.03-3.59.76-3.73,2.12-3.73c1.01,0,1.97.77,1.93,2.31-.04,1.54.07,2.7-.09,3.42Z"/>
      <path class="cls-1" d="M64.75,16.3c-.15.28-1.33.73-1.27-.91.06-1.65,0-6.68,0-6.68,0-1.92-1.59-3.27-3.69-3.27s-3.84,1.2-3.97,3.15c-.04,1.47,1.19,1.74,1.91,1.12s.15-1.55.03-1.59c-.12-.03-.18-1.76,1.59-1.76s2.06,1.69,2.06,3.55v1.04h-.9c-1.96,0-4.94,1.04-4.94,3.94s2.39,3.1,3.06,3.1,2.12-.59,2.77-1.41c.41.8,1.26,1.41,2.16,1.41s2.17-1.04,1.94-1.8c0,0-.58-.17-.73.11ZM59.29,16.57c-1.16,0-1.59-.77-1.59-2.02s1.01-2.47,3.71-2.79v3.67s-.95,1.13-2.12,1.13Z"/>
    </g>
  </g>
</svg>