<?xml version="1.0" encoding="UTF-8"?>
<svg id="Layer_2" data-name="Layer 2" xmlns="http://www.w3.org/2000/svg" viewBox="0 0 347.71 116.4">
  <defs>
    <style>
      .cls-1 {
        fill: #fff;
        fill-rule: evenodd;
      }
    </style>
  </defs>
  <g id="Text_Logo" data-name="Text &amp;amp; Logo">
    <path class="cls-1" d="M64.36,14.38c1.97,0,3.66-.7,5.07-2.08,1.38-1.4,2.08-3.1,2.08-5.09s-.7-3.69-2.08-5.09c-1.4-1.42-3.1-2.13-5.07-2.13s-3.7.7-5.11,2.13c-1.42,1.4-2.12,3.12-2.12,5.09s.7,3.68,2.12,5.09c1.41,1.38,3.12,2.08,5.11,2.08M346.02,107.08h-.01l-10.49-1.16-31.68-86.52c-.31-.53-.79-.86-1.62-1.02h-3.37c-.43,0-1.05.17-1.71,1.21l-34.34,86.45-10.65,1.02c-1.12,0-1.91.81-1.91,1.98v3.52c0,1.13.79,1.91,1.91,1.91h29.34c1.14,0,1.91-.76,1.91-1.91v-3.52c0-1.09-.7-1.87-1.81-1.97l-9.49-.74,10.25-25.75h28.59l9.64,25.51-9.68.98c-1.14,0-1.91.79-1.91,1.98v3.52c0,1.15.77,1.91,1.91,1.91h34.84c1.16,0,1.98-.78,1.98-1.91v-3.52c0-1.16-.75-1.97-1.69-1.97ZM308.24,72.38h-22.87s11.8-30,11.8-30l11.06,30ZM257.92,20.72h-75.05c-1.12,0-1.91.79-1.91,1.92v21.26c0,1.17.78,1.98,1.91,1.98h5.04c1.32,0,1.91-.91,1.89-1.58l2.63-14.85h20.78v76.6l-12.37,1.03c-1.12.09-1.87.89-1.87,1.97v3.52c0,1.13.81,1.91,1.98,1.91h38.88c1.17,0,1.98-.78,1.98-1.91v-3.52c0-1.08-.75-1.88-1.88-1.97l-12.37-1.03V29.45h20.79l2.6,14.63c0,1.06.78,1.8,1.91,1.8h5.04c1.12,0,1.91-.81,1.91-1.98v-21.26c0-1.13-.78-1.92-1.91-1.92ZM94.95,20.72h-31.44c-1.14,0-1.93.79-1.93,1.92v3.5c0,1.13.79,1.92,1.8,1.92h.01l11.05,1.08v46.93c0,3.85-.13,7.16-.4,9.83-.45,4.86-1.4,8.44-2.8,10.64-4.52,7.26-11.19,10.8-20.38,10.8-8.49,0-15.05-2.6-19.51-7.71-1.62-1.86-2.7-4.13-3.22-6.74-.74-3.54-1.1-8.57-1.1-15.36V29.16l11.65-1.09c1.14,0,1.91-.78,1.91-1.93v-3.5c0-1.16-.77-1.92-1.91-1.92H1.91c-1.12,0-1.91.79-1.91,1.92v3.5c0,1.13.78,1.92,1.78,1.92h.02l10.91,1.07v53.31c0,6.24.72,11.48,2.13,15.58,1.07,3.05,3.04,6.03,5.87,8.88,6.37,6.3,15.89,9.49,28.3,9.49,11.06,0,19.78-2.99,25.92-8.89,6.31-6.11,9.52-16.86,9.52-31.97V29.15l10.52-1.08c1.14,0,1.94-.79,1.94-1.93v-3.5c0-1.13-.8-1.92-1.94-1.92ZM187.38,107.07h-.02l-9.89-.91-11.64-22.37c-3.54-6.8-7.22-11.5-11.18-14.28,2.11-.71,4.12-1.58,6.02-2.59,9.01-4.77,13.58-11.87,13.58-21.1,0-8.03-3.37-14.48-10.01-19.17-5.57-3.93-14.73-5.93-27.22-5.93h-31.99c-1.14,0-1.91.77-1.91,1.92v3.5c0,1.15.77,1.93,1.78,1.93h0l11.05,1.08v76.91l-10.93,1.02c-1.14,0-1.91.79-1.91,1.98v3.52c0,1.14.77,1.91,1.91,1.91h37.82c1.17,0,1.98-.78,1.98-1.91v-3.52c0-1.08-.75-1.88-1.88-1.98l-12.36-1.02v-34.15h1c8.31,0,15.24,5.7,20.59,16.92l11.67,24.49c.4.74,1.16,1.17,2.1,1.17h21.27c1.13,0,1.92-.78,1.92-1.91v-3.52c0-1.17-.79-1.98-1.77-1.98ZM130.61,29.45h4.17c15.91,0,23.65,5.99,23.65,18.3,0,3.47-.76,6.32-2.3,8.7-2.76,4.2-7.07,6.5-13.17,7.04-2.39.21-6.54.33-12.35.34V29.45ZM41.03,14.38c1.92,0,3.62-.7,5.02-2.08,1.42-1.4,2.12-3.1,2.12-5.09s-.7-3.69-2.08-5.09c-1.4-1.42-3.12-2.13-5.13-2.13s-3.69.7-5.09,2.13c-1.38,1.4-2.07,3.12-2.07,5.09s.69,3.68,2.12,5.09c1.41,1.38,3.12,2.08,5.11,2.08Z"/>
  </g>
</svg>